<?xml version="1.0" standalone="no"?>
<!DOCTYPE svg PUBLIC "-//W3C//DTD SVG 20010904//EN"
 "http://www.w3.org/TR/2001/REC-SVG-20010904/DTD/svg10.dtd">
<svg version="1.0" xmlns="http://www.w3.org/2000/svg"
 width="1024.000000pt" height="1024.000000pt" viewBox="0 0 1024.000000 1024.000000"
 preserveAspectRatio="xMidYMid meet">

<g transform="translate(0.000000,1024.000000) scale(0.100000,-0.100000)"
fill="#000000" stroke="none">
<path d="M2130 8626 c-107 -31 -188 -92 -251 -189 -27 -41 -56 -70 -101 -99
-95 -61 -155 -114 -210 -187 -122 -162 -169 -360 -117 -501 16 -44 21 -84 23
-205 3 -174 22 -257 88 -394 42 -88 147 -211 180 -211 17 0 29 32 78 198 21
74 33 84 54 47 47 -84 90 -146 111 -159 24 -16 26 -16 45 16 11 18 20 40 20
49 0 9 7 22 16 29 27 23 50 -17 88 -159 38 -142 83 -244 109 -249 21 -4 41 36
61 127 40 175 84 176 125 1 38 -164 81 -250 125 -250 31 0 47 21 71 94 25 74
50 85 79 34 10 -18 30 -45 44 -60 14 -15 23 -30 20 -33 -6 -6 -171 -48 -686
-174 -384 -94 -402 -101 -452 -171 -14 -20 -24 -52 -27 -88 -4 -50 16 -138
156 -697 300 -1190 329 -1302 345 -1333 21 -40 69 -79 114 -92 74 -20 148 -11
375 46 122 30 261 64 310 73 l87 18 -1 -61 c0 -79 -13 -193 -22 -202 -12 -12
-56 36 -92 103 -20 34 -40 65 -45 68 -19 12 -31 -48 -37 -187 -3 -76 -10 -141
-14 -143 -12 -8 -65 42 -130 121 -84 103 -112 99 -152 -20 -10 -32 -28 -283
-30 -411 0 -63 4 -78 37 -142 116 -220 382 -377 753 -444 105 -19 144 -21 343
-16 193 4 243 9 349 31 240 51 404 128 722 337 299 196 481 288 676 341 66 18
106 21 263 22 173 0 198 -3 380 -38 309 -59 380 -67 630 -73 208 -5 249 -3
355 15 276 48 518 149 700 291 l64 50 43 -18 c99 -43 102 -42 188 46 100 104
196 239 265 374 55 107 56 108 83 98 15 -6 54 -17 87 -24 68 -16 82 -9 115 55
63 125 101 321 103 532 l2 148 81 -6 c54 -5 93 -2 119 6 l38 12 -7 79 c-16
189 -96 417 -214 607 -33 54 -42 76 -33 81 7 5 62 18 122 31 103 21 109 24
103 44 -14 43 -88 184 -141 264 -55 86 -210 255 -296 323 -26 21 -44 40 -40
42 5 2 26 10 48 17 67 21 165 70 165 83 0 23 -102 147 -178 217 -89 82 -202
160 -330 228 l-91 48 84 67 c47 37 85 72 85 77 0 16 -73 82 -140 125 -144 94
-309 173 -429 205 -58 15 -65 20 -76 52 -15 45 -92 145 -147 193 -58 50 -157
104 -253 138 -67 25 -100 30 -207 35 l-128 5 -31 48 c-47 74 -186 200 -265
241 -114 59 -172 72 -319 73 -112 0 -146 -4 -242 -29 l-112 -29 -43 20 c-76
36 -120 44 -263 50 -122 5 -152 3 -225 -16 -94 -23 -241 -91 -310 -144 -41
-30 -48 -33 -80 -24 -59 16 -257 2 -324 -22 -55 -20 -62 -20 -109 -6 -65 19
-219 19 -282 1 -41 -13 -52 -13 -75 -1 -36 18 -212 63 -281 70 -30 4 -81 2
-114 -3 -58 -9 -61 -9 -93 19 -39 35 -132 83 -188 98 -33 9 -43 18 -62 57 -85
174 -302 294 -533 294 -110 0 -172 -13 -277 -57 l-83 -36 -27 26 c-66 63 -211
93 -312 63z m895 -195 c41 -21 82 -52 119 -92 121 -130 123 -301 5 -450 -17
-22 -28 -39 -24 -39 4 0 31 16 61 36 73 49 140 126 156 179 l13 44 115 -81
c66 -47 165 -130 233 -197 64 -64 117 -116 117 -115 0 14 -57 158 -84 212 -36
71 -36 72 -14 72 13 0 66 -11 118 -24 156 -39 348 -154 486 -292 40 -40 70
-66 67 -56 -22 62 -87 187 -126 246 l-47 68 48 -7 c125 -18 300 -79 460 -159
39 -20 97 -47 128 -61 l55 -25 -39 48 c-22 26 -78 84 -125 130 -62 60 -82 85
-71 89 9 3 57 3 107 1 106 -6 193 -37 318 -114 41 -26 83 -50 94 -54 43 -18
-22 -10 -87 10 -34 11 -65 20 -66 20 -2 0 15 -16 38 -35 51 -43 107 -59 184
-52 75 7 154 46 291 145 204 147 230 164 300 198 184 89 370 80 534 -26 68
-44 130 -118 209 -248 57 -94 70 -128 55 -143 -6 -6 -27 19 -57 65 -89 142
-214 225 -350 234 -92 6 -158 -9 -261 -58 -65 -31 -108 -64 -225 -170 -161
-146 -239 -193 -349 -211 -61 -9 -168 -1 -215 17 -9 3 -16 4 -16 1 0 -3 37
-20 83 -38 172 -68 278 -130 399 -233 205 -174 392 -223 595 -155 74 24 81 35
8 14 -105 -32 -254 -12 -354 48 -49 29 -161 139 -182 178 -5 9 22 -3 59 -27
36 -24 103 -59 147 -76 70 -28 92 -32 175 -32 76 0 106 4 153 23 75 30 163
111 224 208 l48 76 3 -58 c2 -32 -1 -71 -7 -86 -9 -26 -8 -28 8 -19 25 13 78
74 86 100 8 25 25 23 145 -17 164 -54 302 -132 416 -235 l58 -53 -28 50 c-57
100 -143 211 -252 324 -61 64 -114 126 -118 139 -6 19 -4 22 21 22 46 0 173
-39 236 -72 59 -32 124 -96 185 -182 l34 -47 -59 37 c-32 20 -66 44 -76 52
-35 30 -26 3 36 -104 81 -143 136 -214 276 -358 125 -128 123 -130 -37 -29
-61 39 -73 41 -45 11 25 -27 125 -183 152 -236 33 -66 132 -366 131 -399 0 -4
-15 19 -33 52 -73 134 -232 341 -343 444 -168 158 -366 242 -562 240 l-67 0
65 -18 c180 -49 367 -206 475 -397 64 -114 63 -111 24 -82 -70 52 -178 109
-261 138 -167 58 -302 62 -547 16 -285 -55 -466 -21 -710 132 -47 29 -90 57
-96 60 -28 17 119 -139 174 -184 110 -91 280 -161 401 -165 l35 -1 -35 -10
c-20 -6 -86 -8 -155 -5 -143 6 -234 30 -429 114 -72 31 -171 71 -221 89 -110
40 -91 42 133 9 95 -14 175 -25 180 -25 4 0 -40 26 -98 56 -249 132 -326 140
-625 60 -49 -13 -107 -27 -128 -30 l-37 -7 6 71 c4 38 4 70 0 70 -4 0 -15 -19
-25 -42 -30 -69 -71 -101 -135 -106 -31 -2 -80 -1 -111 3 -48 6 -55 9 -49 23
20 48 32 93 38 142 l7 55 -29 -45 c-35 -55 -103 -117 -137 -126 -30 -7 -84 1
-143 23 -33 12 -41 20 -36 32 12 30 31 116 38 176 l7 60 -25 -52 c-35 -73
-101 -143 -136 -143 -15 0 -66 18 -113 40 l-85 40 13 53 c7 28 16 76 20 105
l7 53 -64 -65 c-48 -50 -71 -66 -91 -66 -24 0 -187 74 -187 85 0 2 7 30 15 62
24 92 20 98 -31 43 -33 -35 -54 -50 -73 -50 -14 0 -68 19 -119 42 -68 31 -92
47 -88 58 3 8 20 56 39 105 54 140 54 140 -25 58 -112 -117 -138 -122 -312
-69 -240 75 -312 88 -601 111 -228 18 -295 28 -373 57 -59 22 -132 80 -133
107 0 10 -4 6 -10 -9 -6 -14 -8 -36 -6 -49 4 -22 3 -23 -38 -18 -55 8 -141 46
-182 81 -109 92 -44 297 132 414 l49 32 11 -43 c6 -24 24 -66 40 -93 l30 -49
7 108 c10 161 49 232 162 291 56 30 116 35 116 11 0 -9 -11 -37 -24 -63 -19
-37 -66 -171 -66 -187 0 -2 23 19 51 46 42 41 169 120 169 105 0 -2 -7 -20
-15 -40 -9 -20 -24 -81 -35 -134 -11 -53 -22 -108 -26 -122 -3 -14 10 0 30 33
93 154 224 285 348 348 115 59 265 63 373 10z m2421 -321 c-43 -28 -99 -71
-126 -96 -40 -37 -53 -44 -72 -39 -31 10 -138 64 -138 70 0 3 23 16 52 31 108
55 205 82 297 83 l64 1 -77 -50z m832 -360 c91 -55 79 -229 -22 -318 -70 -61
-112 -77 -206 -77 -78 0 -90 3 -148 34 -34 19 -78 51 -97 73 l-36 39 83 78 83
79 6 -73 c7 -85 39 -153 81 -173 22 -10 33 -10 61 2 75 31 103 181 52 281 -13
27 -23 50 -22 51 1 1 16 6 32 12 48 17 97 14 133 -8z m-4527 -220 c27 -15 25
-82 -8 -232 -14 -68 -31 -147 -38 -177 l-11 -54 -22 59 c-39 108 -54 194 -50
284 5 110 16 130 69 130 22 0 49 -5 60 -10z m240 -40 c10 0 28 -9 39 -20 22
-22 21 -32 -10 -135 -11 -33 -24 -80 -30 -104 -14 -54 -23 -46 -55 48 -41 120
-29 236 22 217 8 -3 23 -6 34 -6z m327 -56 c12 -8 22 -23 22 -32 0 -32 -98
-317 -104 -302 -36 100 -52 282 -27 328 14 27 74 31 109 6z m425 -61 c18 -11
33 -29 35 -40 2 -12 -12 -57 -32 -101 -41 -94 -67 -181 -96 -317 -12 -55 -25
-104 -30 -108 -8 -9 -49 99 -75 198 -9 33 -18 116 -21 185 -8 182 13 214 134
205 29 -2 67 -12 85 -22z m348 -103 c22 -12 42 -27 45 -33 2 -7 -7 -44 -22
-83 -14 -38 -37 -105 -51 -149 -14 -44 -29 -84 -33 -88 -17 -18 -60 179 -60
273 0 96 38 122 121 80z m378 -169 c62 -32 63 -37 26 -128 -18 -45 -45 -119
-60 -164 -20 -59 -30 -78 -36 -66 -19 32 -39 162 -39 245 0 129 26 155 109
113z m346 -184 c29 -16 41 -30 43 -49 2 -20 -66 -250 -115 -388 -7 -18 -27 46
-49 154 -19 92 -15 211 9 269 13 30 21 37 44 37 15 0 46 -10 68 -23z m350
-151 c14 -9 25 -24 25 -34 0 -9 -29 -100 -64 -201 l-63 -184 -23 84 c-31 115
-39 272 -15 322 9 20 24 37 33 39 25 6 79 -8 107 -26z m3808 -66 c71 -66 104
-121 116 -199 4 -28 6 -51 5 -51 -2 0 -18 28 -35 63 -38 76 -101 171 -142 215
-52 55 -14 35 56 -28z m-3483 -15 c16 -9 32 -25 35 -38 3 -12 -14 -81 -39
-157 l-45 -135 -20 46 c-44 99 -55 268 -20 290 21 13 57 11 89 -6z m614 -11
c9 -3 16 -13 16 -21 0 -29 -51 -183 -61 -183 -12 0 -58 104 -65 150 -5 31 -3
38 18 47 26 13 68 16 92 7z m-283 -34 c22 -12 22 -17 -22 -162 -16 -54 -34
-98 -39 -98 -15 0 -51 110 -57 177 -4 43 -2 67 7 78 14 17 81 20 111 5z
m-1686 -209 c22 -10 90 -55 150 -101 357 -266 753 -479 1160 -624 195 -70 249
-94 294 -133 47 -40 65 -76 74 -150 l6 -51 -42 -28 c-235 -153 -461 -386 -712
-731 -88 -122 -89 -123 -149 -142 -159 -51 -438 -121 -817 -205 -112 -25 -296
-67 -409 -95 -281 -68 -371 -84 -403 -72 -50 19 -22 -83 -382 1352 -80 317
-145 591 -145 609 0 60 40 84 208 124 81 19 242 58 357 85 622 151 741 180
755 180 8 0 33 -8 55 -18z m2724 -141 c74 -144 93 -212 100 -350 l6 -125 34
140 c23 93 35 175 39 244 l5 104 19 -37 c29 -56 48 -159 48 -261 l0 -90 49 87
c61 109 105 169 171 233 l51 50 -46 -100 c-26 -55 -49 -106 -52 -113 -3 -7 23
16 58 51 167 166 350 258 546 273 l68 5 -50 -19 c-93 -35 -191 -90 -263 -147
-90 -72 -211 -223 -592 -740 -98 -132 -288 -375 -295 -375 -2 0 8 32 21 71 60
176 68 250 69 569 0 303 -7 387 -46 558 -10 45 -19 86 -19 90 1 16 43 -48 79
-118z m1511 -21 l51 -11 -68 -33 c-137 -66 -333 -227 -464 -382 -90 -106 -105
-129 -56 -86 97 85 274 186 377 217 57 17 231 48 237 42 5 -5 -152 -376 -199
-469 -44 -89 -120 -206 -171 -264 l-32 -37 65 44 c157 105 360 287 360 322 0
6 2 9 5 6 8 -7 -89 -240 -140 -336 -72 -134 -150 -237 -280 -367 -121 -120
-246 -217 -372 -288 -46 -25 -58 -36 -38 -31 304 64 541 183 775 386 101 88
101 77 0 -47 -120 -147 -308 -308 -465 -398 -169 -96 -259 -127 -817 -277
-125 -33 -246 -67 -269 -75 -68 -24 -68 -17 1 23 36 21 133 83 215 138 83 56
159 106 170 112 11 6 17 12 14 12 -3 0 -107 -33 -232 -74 -417 -136 -548 -216
-931 -566 -401 -367 -558 -499 -728 -612 -367 -246 -721 -314 -1193 -231 -90
16 -200 50 -265 83 -93 47 -220 168 -209 198 5 14 161 -33 239 -71 54 -26 76
-32 130 -31 36 0 75 6 87 12 19 11 29 9 65 -10 36 -19 59 -23 133 -23 77 0 99
4 155 29 53 24 85 30 175 36 118 7 205 34 270 85 18 13 64 36 101 50 263 99
526 311 1014 816 140 145 352 360 471 479 297 296 388 407 629 770 374 563
595 777 885 855 61 17 236 19 305 4z m941 -258 c24 -64 35 -155 22 -189 -8
-20 -12 -15 -32 45 -13 37 -46 121 -72 185 -27 65 -49 121 -49 125 1 5 25 -19
55 -51 34 -37 62 -80 76 -115z m-321 -90 c16 -66 8 -219 -13 -276 l-16 -40 0
105 c-1 92 -9 191 -26 325 l-5 40 23 -50 c13 -28 30 -75 37 -104z m359 -511
c32 -86 36 -148 15 -237 -16 -69 -18 -75 -25 -48 -3 17 -7 53 -8 82 -1 59 -23
169 -51 262 -11 35 -20 66 -20 70 2 20 73 -83 89 -129z m-391 -202 c-5 -158
-20 -206 -99 -313 -28 -38 -48 -61 -45 -50 4 11 23 65 42 119 35 100 84 318
84 372 0 20 3 25 11 17 7 -7 10 -55 7 -145z m-2548 108 c0 -2 -37 -31 -83 -64
-289 -210 -444 -380 -769 -840 -88 -125 -168 -235 -178 -246 -23 -24 -35 -16
-65 44 -14 27 -29 51 -34 55 -16 9 -40 -37 -82 -157 -45 -129 -79 -208 -90
-208 -4 0 -34 23 -65 50 -32 28 -64 49 -72 48 -8 -2 -33 -32 -54 -68 -22 -36
-49 -75 -61 -88 -26 -28 -61 -25 -65 6 -3 17 22 49 105 135 167 173 289 323
473 582 150 211 322 401 469 517 115 92 229 143 471 212 93 26 100 28 100 22z
m152 -418 c-17 -30 -75 -68 -107 -68 -14 0 -30 9 -39 23 -19 29 -30 133 -21
193 l7 47 86 -86 c80 -80 85 -88 74 -109z m-312 -166 c48 -60 50 -63 36 -90
-19 -36 -64 -78 -98 -91 -31 -12 -53 7 -68 60 -15 52 -12 189 6 249 l16 54 28
-60 c16 -32 52 -87 80 -122z m2928 -11 c-4 -78 -9 -98 -41 -163 -20 -40 -50
-89 -67 -108 l-30 -35 37 90 c20 50 48 138 62 197 14 60 30 108 35 108 5 0 7
-40 4 -89z m-3222 -219 c19 -41 43 -86 54 -102 11 -15 20 -33 20 -39 0 -19
-69 -88 -101 -101 -27 -12 -33 -11 -52 9 -20 20 -22 31 -21 139 0 100 4 124
23 167 23 49 23 49 33 25 6 -14 26 -58 44 -98z m-318 -245 c12 -28 42 -79 67
-111 l44 -60 -37 -42 c-63 -71 -119 -80 -138 -22 -19 58 8 288 34 288 4 0 17
-24 30 -53z m-1400 -113 c16 -11 22 -25 22 -55 0 -45 -14 -79 -34 -79 -19 0
-54 41 -67 80 -11 30 -10 35 11 52 27 22 39 23 68 2z m3992 -18 c0 -5 -157
-120 -216 -158 -122 -78 -286 -142 -434 -169 -88 -16 -441 -17 -510 -1 l-45
10 46 1 c74 2 366 40 473 62 193 40 394 112 581 207 110 56 105 54 105 48z
m-2888 -124 c20 -42 57 -101 82 -130 25 -30 46 -57 46 -62 0 -13 -62 -62 -97
-76 -74 -31 -115 25 -115 157 0 75 24 189 40 189 4 0 24 -35 44 -78z m-298
-265 c31 -45 70 -101 87 -124 28 -37 30 -44 18 -59 -21 -26 -89 -54 -131 -54
-30 0 -41 6 -55 27 -34 51 -19 320 16 299 5 -4 34 -43 65 -89z m-1391 -59 c20
-35 63 -103 96 -152 67 -97 74 -122 37 -132 -61 -15 -144 47 -165 123 -10 36
-16 223 -7 223 2 0 20 -28 39 -62z m1035 -63 c19 -35 54 -97 80 -136 l46 -72
-27 -22 c-31 -28 -97 -41 -126 -25 -36 19 -54 69 -54 146 1 67 26 174 41 174
4 0 22 -29 40 -65z m-639 -94 c12 -41 37 -91 61 -122 46 -61 42 -69 -38 -69
-44 0 -57 5 -79 26 -23 23 -25 32 -21 82 4 50 38 152 51 152 3 0 14 -31 26
-69z m344 -117 c26 -41 47 -78 47 -81 0 -4 -7 -15 -17 -25 -26 -29 -79 -24
-115 13 -31 30 -31 31 -25 117 3 48 8 96 13 106 6 17 10 14 28 -19 12 -20 42
-71 69 -111z"/>
<path d="M2839 8326 c-95 -25 -189 -102 -262 -218 -40 -63 -80 -139 -75 -143
2 -2 42 21 88 52 169 110 265 144 329 117 17 -7 31 -19 31 -27 0 -20 -39 -53
-111 -93 l-64 -35 50 6 c28 4 73 14 100 22 53 17 162 80 169 99 8 20 -14 106
-35 140 -24 39 -88 79 -139 87 -19 2 -56 -1 -81 -7z"/>
<path d="M4920 7366 l-45 -12 86 -7 c99 -8 245 -43 339 -81 l65 -27 -35 31
c-19 16 -67 46 -107 66 -65 33 -82 37 -165 40 -56 2 -111 -2 -138 -10z"/>
<path d="M2605 5864 c-137 -35 -270 -75 -295 -87 -103 -53 -113 -125 -51 -369
52 -207 68 -257 91 -295 26 -44 74 -67 135 -66 65 1 569 128 619 156 103 57
107 109 31 404 -32 122 -66 236 -76 253 -10 17 -33 39 -51 50 -55 34 -126 26
-403 -46z m359 -47 c10 -7 24 -39 31 -70 l13 -57 -36 -9 c-70 -18 -163 -34
-168 -28 -3 3 -14 37 -24 75 l-18 70 52 15 c64 19 127 21 150 4z m-251 -119
l15 -68 -37 -9 c-20 -6 -52 -13 -72 -16 l-37 -7 -15 68 c-9 38 -15 70 -13 72
9 9 132 39 137 33 4 -3 14 -36 22 -73z m-222 -20 c6 -24 12 -56 13 -73 1 -29
-1 -30 -84 -52 -46 -12 -86 -21 -88 -19 -2 2 -6 28 -8 57 -4 37 -1 60 8 71 12
16 105 55 135 57 7 1 17 -18 24 -41z m551 -120 c9 -35 13 -66 10 -70 -4 -3
-44 -16 -89 -27 -45 -12 -88 -23 -95 -26 -10 -4 -19 14 -31 66 -10 40 -16 73
-15 74 2 2 134 31 198 44 3 1 13 -27 22 -61z m-283 -50 c6 -29 14 -62 17 -74
5 -19 -1 -23 -60 -38 -36 -9 -69 -16 -74 -16 -4 0 -14 27 -20 60 -7 34 -15 67
-18 74 -4 10 13 18 58 29 35 8 68 15 74 16 6 0 16 -23 23 -51z m-209 -78 c13
-52 15 -72 7 -75 -38 -12 -161 -44 -163 -42 -9 10 -40 149 -34 152 12 7 164
43 168 40 2 -2 12 -35 22 -75z m539 -81 c1 -20 -5 -41 -12 -47 -11 -9 -150
-52 -169 -52 -9 0 -40 101 -33 108 2 3 48 17 102 32 110 31 111 30 112 -41z
m-279 -51 c6 -24 13 -48 15 -55 4 -11 -25 -24 -87 -37 -14 -3 -33 -9 -41 -12
-12 -4 -18 8 -28 50 -7 31 -10 59 -6 62 5 6 100 31 124 33 7 1 17 -18 23 -41z
m-216 -45 c3 -21 9 -48 12 -59 5 -20 0 -23 -46 -33 -100 -21 -135 -8 -142 53
-3 28 -1 29 77 51 44 13 83 24 86 24 4 1 9 -16 13 -36z"/>
<path d="M4282 5425 c-149 -38 -218 -59 -228 -72 -17 -22 -18 -93 -2 -128 16
-36 46 -40 146 -21 132 26 354 85 380 102 18 12 22 24 22 65 0 43 -5 55 -29
80 -17 17 -39 29 -53 28 -13 -1 -119 -25 -236 -54z"/>
<path d="M3795 5299 c-38 -10 -115 -30 -170 -45 -237 -61 -255 -70 -255 -129
0 -41 37 -104 65 -111 51 -13 465 108 493 144 18 23 15 72 -8 109 -30 49 -46
53 -125 32z"/>
<path d="M2803 5035 c-183 -46 -342 -89 -353 -95 -29 -16 -35 -54 -15 -106 17
-46 39 -64 76 -64 12 0 175 41 363 90 232 62 345 96 354 108 46 62 10 152 -60
152 -18 0 -183 -38 -365 -85z"/>
<path d="M3470 4751 c-382 -101 -633 -165 -753 -190 -76 -16 -144 -35 -152
-41 -21 -18 -19 -83 3 -103 10 -10 31 -17 46 -17 24 0 227 50 811 200 220 56
239 67 228 123 -12 67 -27 69 -183 28z"/>
<path d="M6633 5341 c-108 -118 -230 -274 -278 -351 -16 -27 201 169 241 217
65 77 183 268 172 278 -2 2 -62 -63 -135 -144z"/>
<path d="M6158 5058 c-19 -24 -93 -104 -163 -178 -129 -137 -222 -244 -195
-224 204 148 302 248 369 382 17 34 30 62 28 62 -1 0 -19 -19 -39 -42z"/>
</g>
</svg>
